<?xml version="1.0" encoding="UTF-8" standalone="no"?>
<!DOCTYPE svg PUBLIC "-//W3C//DTD SVG 1.1//EN"
 "http://www.w3.org/Graphics/SVG/1.1/DTD/svg11.dtd">
<!-- Generated by graphviz version 2.42.4 (0)
 -->
<!-- Title: G Pages: 1 -->
<svg width="454pt" height="481pt"
 viewBox="0.00 0.00 454.00 481.00" xmlns="http://www.w3.org/2000/svg" xmlns:xlink="http://www.w3.org/1999/xlink">
<g id="graph0" class="graph" transform="scale(1 1) rotate(0) translate(4 477)">
<title>G</title>
<polygon fill="white" stroke="transparent" points="-4,4 -4,-477 450,-477 450,4 -4,4"/>
<text text-anchor="middle" x="223" y="-457.8" font-family="Arial" font-size="14.00">Activity — Check Availability v0.1</text>
<!-- A -->
<g id="node1" class="node">
<title>A</title>
<polygon fill="none" stroke="black" points="387.5,-450 258.5,-450 258.5,-414 387.5,-414 387.5,-450"/>
<text text-anchor="middle" x="323" y="-428.3" font-family="Arial" font-size="14.00">Availability request</text>
</g>
<!-- B -->
<g id="node2" class="node">
<title>B</title>
<polygon fill="none" stroke="black" points="323,-377 200,-339 323,-301 446,-339 323,-377"/>
<text text-anchor="middle" x="323" y="-342.8" font-family="Arial" font-size="14.00">Valid interval</text>
<text text-anchor="middle" x="323" y="-327.8" font-family="Arial" font-size="14.00">and Agent exists?</text>
</g>
<!-- A&#45;&gt;B -->
<g id="edge1" class="edge">
<title>A&#45;&gt;B</title>
<path fill="none" stroke="black" d="M323,-413.88C323,-406.25 323,-396.83 323,-387.31"/>
<polygon fill="black" stroke="black" points="326.5,-387.02 323,-377.02 319.5,-387.02 326.5,-387.02"/>
</g>
<!-- C -->
<g id="node3" class="node">
<title>C</title>
<polygon fill="none" stroke="black" points="255,-250 164.85,-232 255,-214 345.15,-232 255,-250"/>
<text text-anchor="middle" x="255" y="-228.3" font-family="Arial" font-size="14.00">Agent active?</text>
</g>
<!-- B&#45;&gt;C -->
<g id="edge3" class="edge">
<title>B&#45;&gt;C</title>
<path fill="none" stroke="black" d="M302.97,-307.06C292.58,-291.03 280.1,-271.76 270.47,-256.89"/>
<polygon fill="black" stroke="black" points="273.26,-254.76 264.89,-248.27 267.39,-258.56 273.26,-254.76"/>
<text text-anchor="middle" x="298.5" y="-271.8" font-family="Arial" font-size="14.00">Yes</text>
</g>
<!-- X -->
<g id="node5" class="node">
<title>X</title>
<polygon fill="none" stroke="black" points="418.5,-250 363.5,-250 363.5,-214 418.5,-214 418.5,-250"/>
<text text-anchor="middle" x="391" y="-228.3" font-family="Arial" font-size="14.00">Reject</text>
</g>
<!-- B&#45;&gt;X -->
<g id="edge2" class="edge">
<title>B&#45;&gt;X</title>
<path fill="none" stroke="black" d="M343.03,-307.06C353.03,-291.63 364.97,-273.2 374.43,-258.58"/>
<polygon fill="black" stroke="black" points="377.47,-260.33 379.97,-250.03 371.6,-256.52 377.47,-260.33"/>
<text text-anchor="middle" x="376" y="-271.8" font-family="Arial" font-size="14.00">No</text>
</g>
<!-- D -->
<g id="node4" class="node">
<title>D</title>
<polygon fill="none" stroke="black" points="158,-163 0,-125 158,-87 316,-125 158,-163"/>
<text text-anchor="middle" x="158" y="-128.8" font-family="Arial" font-size="14.00">Overlaps CONFIRMED</text>
<text text-anchor="middle" x="158" y="-113.8" font-family="Arial" font-size="14.00">Reservation?</text>
</g>
<!-- C&#45;&gt;D -->
<g id="edge5" class="edge">
<title>C&#45;&gt;D</title>
<path fill="none" stroke="black" d="M241.51,-216.4C229.03,-202.89 209.93,-182.21 193.14,-164.04"/>
<polygon fill="black" stroke="black" points="195.47,-161.4 186.11,-156.43 190.33,-166.15 195.47,-161.4"/>
<text text-anchor="middle" x="232.5" y="-184.8" font-family="Arial" font-size="14.00">Yes</text>
</g>
<!-- U -->
<g id="node6" class="node">
<title>U</title>
<polygon fill="none" stroke="black" points="366.5,-36 259.5,-36 259.5,0 366.5,0 366.5,-36"/>
<text text-anchor="middle" x="313" y="-14.3" font-family="Arial" font-size="14.00">UNAVAILABLE</text>
</g>
<!-- C&#45;&gt;U -->
<g id="edge4" class="edge">
<title>C&#45;&gt;U</title>
<path fill="none" stroke="black" d="M275.64,-217.96C292.47,-205.99 315.04,-186.56 325,-163 341.16,-124.76 331.42,-75.79 322.5,-45.93"/>
<polygon fill="black" stroke="black" points="325.78,-44.7 319.43,-36.22 319.11,-46.81 325.78,-44.7"/>
<text text-anchor="middle" x="343" y="-121.3" font-family="Arial" font-size="14.00">No</text>
</g>
<!-- D&#45;&gt;U -->
<g id="edge6" class="edge">
<title>D&#45;&gt;U</title>
<path fill="none" stroke="black" d="M198.32,-96.69C223.4,-79.69 255.3,-58.09 279.08,-41.98"/>
<polygon fill="black" stroke="black" points="281.13,-44.81 287.45,-36.31 277.21,-39.02 281.13,-44.81"/>
<text text-anchor="middle" x="270.5" y="-57.8" font-family="Arial" font-size="14.00">Yes</text>
</g>
<!-- V -->
<g id="node7" class="node">
<title>V</title>
<polygon fill="none" stroke="black" points="202,-36 114,-36 114,0 202,0 202,-36"/>
<text text-anchor="middle" x="158" y="-14.3" font-family="Arial" font-size="14.00">AVAILABLE</text>
</g>
<!-- D&#45;&gt;V -->
<g id="edge7" class="edge">
<title>D&#45;&gt;V</title>
<path fill="none" stroke="black" d="M158,-86.98C158,-73.56 158,-58.65 158,-46.22"/>
<polygon fill="black" stroke="black" points="161.5,-46.04 158,-36.04 154.5,-46.04 161.5,-46.04"/>
<text text-anchor="middle" x="167" y="-57.8" font-family="Arial" font-size="14.00">No</text>
</g>
</g>
</svg>
