<?xml version="1.0" encoding="UTF-8" standalone="no"?>
<!DOCTYPE svg PUBLIC "-//W3C//DTD SVG 1.1//EN"
 "http://www.w3.org/Graphics/SVG/1.1/DTD/svg11.dtd">
<!-- Generated by graphviz version 2.42.4 (0)
 -->
<!-- Title: G Pages: 1 -->
<svg width="346pt" height="503pt"
 viewBox="0.00 0.00 346.00 503.00" xmlns="http://www.w3.org/2000/svg" xmlns:xlink="http://www.w3.org/1999/xlink">
<g id="graph0" class="graph" transform="scale(1 1) rotate(0) translate(4 499)">
<title>G</title>
<polygon fill="white" stroke="transparent" points="-4,4 -4,-499 342,-499 342,4 -4,4"/>
<text text-anchor="middle" x="169" y="-479.8" font-family="Arial" font-size="14.00">Activity — Vyhledávání / Gantt přehled rezervací v0.1</text>
<!-- A -->
<g id="node1" class="node">
<title>A</title>
<polygon fill="none" stroke="black" points="266,-472 72,-472 72,-436 266,-436 266,-472"/>
<text text-anchor="middle" x="169" y="-450.3" font-family="Arial" font-size="14.00">User otevře přehled rezervací</text>
</g>
<!-- B -->
<g id="node2" class="node">
<title>B</title>
<polygon fill="none" stroke="black" points="283,-400 55,-400 55,-364 283,-364 283,-400"/>
<text text-anchor="middle" x="169" y="-378.3" font-family="Arial" font-size="14.00">Systém načte všechny Reservation</text>
</g>
<!-- A&#45;&gt;B -->
<g id="edge1" class="edge">
<title>A&#45;&gt;B</title>
<path fill="none" stroke="black" d="M169,-435.7C169,-427.98 169,-418.71 169,-410.11"/>
<polygon fill="black" stroke="black" points="172.5,-410.1 169,-400.1 165.5,-410.1 172.5,-410.1"/>
</g>
<!-- C -->
<g id="node3" class="node">
<title>C</title>
<polygon fill="none" stroke="black" points="282.5,-328 55.5,-328 55.5,-292 282.5,-292 282.5,-328"/>
<text text-anchor="middle" x="169" y="-306.3" font-family="Arial" font-size="14.00">Systém načte související AI Agenty</text>
</g>
<!-- B&#45;&gt;C -->
<g id="edge2" class="edge">
<title>B&#45;&gt;C</title>
<path fill="none" stroke="black" d="M169,-363.7C169,-355.98 169,-346.71 169,-338.11"/>
<polygon fill="black" stroke="black" points="172.5,-338.1 169,-328.1 165.5,-338.1 172.5,-338.1"/>
</g>
<!-- D -->
<g id="node4" class="node">
<title>D</title>
<polygon fill="none" stroke="black" points="281,-256 57,-256 57,-220 281,-220 281,-256"/>
<text text-anchor="middle" x="169" y="-234.3" font-family="Arial" font-size="14.00">Seskupí Reservation podle Agenta</text>
</g>
<!-- C&#45;&gt;D -->
<g id="edge3" class="edge">
<title>C&#45;&gt;D</title>
<path fill="none" stroke="black" d="M169,-291.7C169,-283.98 169,-274.71 169,-266.11"/>
<polygon fill="black" stroke="black" points="172.5,-266.1 169,-256.1 165.5,-266.1 172.5,-266.1"/>
</g>
<!-- E -->
<g id="node5" class="node">
<title>E</title>
<polygon fill="none" stroke="black" points="258.5,-184 79.5,-184 79.5,-148 258.5,-148 258.5,-184"/>
<text text-anchor="middle" x="169" y="-162.3" font-family="Arial" font-size="14.00">Seřadí intervaly podle času</text>
</g>
<!-- D&#45;&gt;E -->
<g id="edge4" class="edge">
<title>D&#45;&gt;E</title>
<path fill="none" stroke="black" d="M169,-219.7C169,-211.98 169,-202.71 169,-194.11"/>
<polygon fill="black" stroke="black" points="172.5,-194.1 169,-184.1 165.5,-194.1 172.5,-194.1"/>
</g>
<!-- F -->
<g id="node6" class="node">
<title>F</title>
<polygon fill="none" stroke="black" points="265,-112 73,-112 73,-74 265,-74 265,-112"/>
<text text-anchor="middle" x="169" y="-96.8" font-family="Arial" font-size="14.00">Připraví startTime a endTime</text>
<text text-anchor="middle" x="169" y="-81.8" font-family="Arial" font-size="14.00">pro zobrazení</text>
</g>
<!-- E&#45;&gt;F -->
<g id="edge5" class="edge">
<title>E&#45;&gt;F</title>
<path fill="none" stroke="black" d="M169,-147.81C169,-140.11 169,-130.82 169,-122.15"/>
<polygon fill="black" stroke="black" points="172.5,-122.02 169,-112.02 165.5,-122.02 172.5,-122.02"/>
</g>
<!-- G -->
<g id="node7" class="node">
<title>G</title>
<polygon fill="none" stroke="black" points="264.5,-38 73.5,-38 73.5,0 264.5,0 264.5,-38"/>
<text text-anchor="middle" x="169" y="-22.8" font-family="Arial" font-size="14.00">Zobrazí všechny Reservation</text>
<text text-anchor="middle" x="169" y="-7.8" font-family="Arial" font-size="14.00">jako Ganttův diagram</text>
</g>
<!-- F&#45;&gt;G -->
<g id="edge6" class="edge">
<title>F&#45;&gt;G</title>
<path fill="none" stroke="black" d="M169,-73.83C169,-66.13 169,-56.97 169,-48.42"/>
<polygon fill="black" stroke="black" points="172.5,-48.41 169,-38.41 165.5,-48.41 172.5,-48.41"/>
</g>
</g>
</svg>
