<?xml version="1.0" encoding="UTF-8" standalone="no"?>
<!DOCTYPE svg PUBLIC "-//W3C//DTD SVG 1.1//EN"
 "http://www.w3.org/Graphics/SVG/1.1/DTD/svg11.dtd">
<!-- Generated by graphviz version 2.42.4 (0)
 -->
<!-- Title: G Pages: 1 -->
<svg width="441pt" height="314pt"
 viewBox="0.00 0.00 440.50 314.00" xmlns="http://www.w3.org/2000/svg" xmlns:xlink="http://www.w3.org/1999/xlink">
<g id="graph0" class="graph" transform="scale(1 1) rotate(0) translate(4 310)">
<title>G</title>
<polygon fill="white" stroke="transparent" points="-4,4 -4,-310 436.5,-310 436.5,4 -4,4"/>
<text text-anchor="middle" x="216.25" y="-290.8" font-family="Arial" font-size="14.00">Activity — Admin správa agentů v0.1</text>
<!-- A -->
<g id="node1" class="node">
<title>A</title>
<polygon fill="none" stroke="black" points="388.5,-283 170.5,-283 170.5,-247 388.5,-247 388.5,-283"/>
<text text-anchor="middle" x="279.5" y="-261.3" font-family="Arial" font-size="14.00">Admin opens Agent management</text>
</g>
<!-- B -->
<g id="node2" class="node">
<title>B</title>
<polygon fill="none" stroke="black" points="279.5,-210 159.18,-192 279.5,-174 399.82,-192 279.5,-210"/>
<text text-anchor="middle" x="279.5" y="-188.3" font-family="Arial" font-size="14.00">Authorized Admin?</text>
</g>
<!-- A&#45;&gt;B -->
<g id="edge1" class="edge">
<title>A&#45;&gt;B</title>
<path fill="none" stroke="black" d="M279.5,-246.81C279.5,-238.79 279.5,-229.05 279.5,-220.07"/>
<polygon fill="black" stroke="black" points="283,-220.03 279.5,-210.03 276,-220.03 283,-220.03"/>
</g>
<!-- C -->
<g id="node3" class="node">
<title>C</title>
<polygon fill="none" stroke="black" points="231.5,-123 181.73,-105 231.5,-87 281.27,-105 231.5,-123"/>
<text text-anchor="middle" x="231.5" y="-101.3" font-family="Arial" font-size="14.00">Action</text>
</g>
<!-- B&#45;&gt;C -->
<g id="edge3" class="edge">
<title>B&#45;&gt;C</title>
<path fill="none" stroke="black" d="M270.47,-175.01C263.16,-162.07 252.77,-143.67 244.56,-129.13"/>
<polygon fill="black" stroke="black" points="247.5,-127.21 239.53,-120.22 241.4,-130.65 247.5,-127.21"/>
<text text-anchor="middle" x="270" y="-144.8" font-family="Arial" font-size="14.00">Yes</text>
</g>
<!-- X -->
<g id="node8" class="node">
<title>X</title>
<polygon fill="none" stroke="black" points="354,-123 299,-123 299,-87 354,-87 354,-123"/>
<text text-anchor="middle" x="326.5" y="-101.3" font-family="Arial" font-size="14.00">Reject</text>
</g>
<!-- B&#45;&gt;X -->
<g id="edge2" class="edge">
<title>B&#45;&gt;X</title>
<path fill="none" stroke="black" d="M288.34,-175.01C294.99,-162.98 304.26,-146.22 312,-132.23"/>
<polygon fill="black" stroke="black" points="315.28,-133.53 317.05,-123.08 309.15,-130.14 315.28,-133.53"/>
<text text-anchor="middle" x="315.5" y="-144.8" font-family="Arial" font-size="14.00">No</text>
</g>
<!-- D -->
<g id="node4" class="node">
<title>D</title>
<polygon fill="none" stroke="black" points="95,-36 0,-36 0,0 95,0 95,-36"/>
<text text-anchor="middle" x="47.5" y="-14.3" font-family="Arial" font-size="14.00">Create Agent</text>
</g>
<!-- C&#45;&gt;D -->
<g id="edge4" class="edge">
<title>C&#45;&gt;D</title>
<path fill="none" stroke="black" d="M210.56,-94.55C195.06,-87.54 173.44,-77.73 154.5,-69 134.43,-59.75 112.29,-49.42 93.38,-40.57"/>
<polygon fill="black" stroke="black" points="94.64,-37.29 84.1,-36.22 91.67,-43.63 94.64,-37.29"/>
<text text-anchor="middle" x="175" y="-57.8" font-family="Arial" font-size="14.00">Create</text>
</g>
<!-- E -->
<g id="node5" class="node">
<title>E</title>
<polygon fill="none" stroke="black" points="234,-36 113,-36 113,0 234,0 234,-36"/>
<text text-anchor="middle" x="173.5" y="-14.3" font-family="Arial" font-size="14.00">Update metadata</text>
</g>
<!-- C&#45;&gt;E -->
<g id="edge5" class="edge">
<title>C&#45;&gt;E</title>
<path fill="none" stroke="black" d="M222.18,-90.34C213.78,-78.03 201.19,-59.59 190.93,-44.54"/>
<polygon fill="black" stroke="black" points="193.73,-42.43 185.2,-36.15 187.94,-46.38 193.73,-42.43"/>
<text text-anchor="middle" x="218.5" y="-57.8" font-family="Arial" font-size="14.00">Edit</text>
</g>
<!-- F -->
<g id="node6" class="node">
<title>F</title>
<polygon fill="none" stroke="black" points="328.5,-36 252.5,-36 252.5,0 328.5,0 328.5,-36"/>
<text text-anchor="middle" x="290.5" y="-14.3" font-family="Arial" font-size="14.00">Set active</text>
</g>
<!-- C&#45;&gt;F -->
<g id="edge6" class="edge">
<title>C&#45;&gt;F</title>
<path fill="none" stroke="black" d="M240.98,-90.34C249.53,-78.03 262.33,-59.59 272.77,-44.54"/>
<polygon fill="black" stroke="black" points="275.77,-46.36 278.6,-36.15 270.02,-42.36 275.77,-46.36"/>
<text text-anchor="middle" x="290" y="-57.8" font-family="Arial" font-size="14.00">Activate</text>
</g>
<!-- G -->
<g id="node7" class="node">
<title>G</title>
<polygon fill="none" stroke="black" points="432.5,-36 346.5,-36 346.5,0 432.5,0 432.5,-36"/>
<text text-anchor="middle" x="389.5" y="-14.3" font-family="Arial" font-size="14.00">Set inactive</text>
</g>
<!-- C&#45;&gt;G -->
<g id="edge7" class="edge">
<title>C&#45;&gt;G</title>
<path fill="none" stroke="black" d="M256.19,-95.8C273.99,-89.47 298.33,-79.97 318.5,-69 332.71,-61.28 347.47,-51.25 359.83,-42.2"/>
<polygon fill="black" stroke="black" points="362.04,-44.92 367.97,-36.14 357.86,-39.31 362.04,-44.92"/>
<text text-anchor="middle" x="375.5" y="-57.8" font-family="Arial" font-size="14.00">Deactivate</text>
</g>
</g>
</svg>
